<svg width="37" height="36" viewBox="0 0 37 36"  xmlns="http://www.w3.org/2000/svg">
<g clip-path="url(#clip0)">
<path d="M36.4049 34.9435L31.7092 22.4218C31.595 22.1166 31.3031 21.9139 30.9767 21.9139H23.801L26.5026 17.1502C26.9424 16.3746 27.5724 15.0724 27.9073 14.246C27.9371 14.1732 28.6289 12.4413 28.6289 10.527C28.6289 4.72323 24.0648 0.000999451 18.455 0.000999451C12.8453 0.000999451 8.28118 4.72323 8.28118 10.527C8.28118 12.4428 8.97927 14.1763 9.00901 14.2483C9.34474 15.0732 9.97552 16.3746 10.4146 17.1502L13.1122 21.9139H5.93337C5.60703 21.9139 5.31511 22.1166 5.20007 22.4218L0.504444 34.9435C0.414444 35.1838 0.448096 35.453 0.594443 35.6643C0.74079 35.8748 0.98105 36.0008 1.23774 36.0008H35.6723C35.929 36.0008 36.1693 35.8748 36.3156 35.6643C36.462 35.453 36.4949 35.1838 36.4049 34.9435ZM11.7755 16.3786C11.3717 15.6648 10.7683 14.4181 10.4576 13.6582C10.4513 13.6434 9.84639 12.14 9.84639 10.5278C9.84639 5.58645 13.7085 1.56621 18.455 1.56621C23.2015 1.56621 27.0637 5.58645 27.0637 10.527C27.0637 12.1282 26.4619 13.6441 26.4572 13.6582C26.1488 14.4189 25.5462 15.664 25.1408 16.3778L21.785 22.295C21.7819 22.3005 21.7764 22.3052 21.7733 22.3107L18.5458 28.0073C18.5122 28.0675 18.4801 28.1098 18.455 28.1372C18.43 28.1098 18.3995 28.0683 18.365 28.0088L15.136 22.3099C15.136 22.3099 15.136 22.3091 15.1352 22.3091L11.7755 16.3786ZM2.36704 34.4356L6.47572 23.4791H13.9989L17.0017 28.7797C17.0025 28.7813 17.0033 28.7821 17.0041 28.7828L17.7734 30.1407C18.0512 30.6306 18.8573 30.6306 19.1351 30.1407L19.9068 28.7789C19.9068 28.7789 19.9068 28.7789 19.9068 28.7781L22.9135 23.4791H30.4344L34.543 34.4356H2.36704Z" />
<path d="M23.933 10.174C23.933 7.1531 21.4749 4.69572 18.4548 4.69572C15.4347 4.69572 12.9766 7.1531 12.9766 10.174C12.9766 13.1948 15.4347 15.6522 18.4548 15.6522C21.4749 15.6522 23.933 13.1948 23.933 10.174ZM14.5418 10.174C14.5418 8.01631 16.2972 6.26093 18.4548 6.26093C20.6124 6.26093 22.3678 8.01631 22.3678 10.174C22.3678 12.3316 20.6124 14.087 18.4548 14.087C16.2972 14.087 14.5418 12.3316 14.5418 10.174Z" />
</g>
<defs>
<clipPath id="clip0">
<rect width="36" height="36" fill="white" transform="translate(0.454529)"/>
</clipPath>
</defs>
</svg>
