<svg width="37" height="36" viewBox="0 0 37 36"  xmlns="http://www.w3.org/2000/svg">
<g clip-path="url(#clip0)">
<path d="M18.4544 0C8.52944 0 0.454468 8.07498 0.454468 18C0.454468 27.925 8.52944 35.9999 18.4544 35.9999C28.3794 35.9999 36.4544 27.925 36.4544 18C36.4544 8.07498 28.3795 0 18.4544 0ZM18.4544 34.4347C9.39183 34.4347 2.01966 27.0626 2.01966 18C2.01966 8.93736 9.39183 1.56519 18.4544 1.56519C27.517 1.56519 34.8892 8.93736 34.8892 18C34.8892 27.0626 27.517 34.4347 18.4544 34.4347Z" />
<path d="M18.4544 17.2174C12.8446 17.2174 8.28046 21.7816 8.28046 27.3914C8.28046 27.8234 8.63109 28.174 9.06309 28.174C9.49509 28.174 9.84572 27.8233 9.84572 27.3913C9.84572 22.644 13.7071 18.7826 18.4544 18.7826C23.2017 18.7826 27.063 22.644 27.063 27.3913C27.063 27.8233 27.4137 28.1739 27.8457 28.1739C28.2777 28.1739 28.6283 27.8233 28.6283 27.3913C28.6283 21.7816 24.0641 17.2174 18.4544 17.2174Z" />
<path d="M18.4544 4.69566C15.4336 4.69566 12.9761 7.15302 12.9761 10.1739C12.9761 13.1949 15.4335 15.6522 18.4544 15.6522C21.4753 15.6522 23.9327 13.1948 23.9327 10.1739C23.9327 7.15309 21.4753 4.69566 18.4544 4.69566ZM18.4544 14.087C16.2976 14.087 14.5414 12.3308 14.5414 10.1739C14.5414 8.01709 16.2976 6.26092 18.4544 6.26092C20.6113 6.26092 22.3674 8.01709 22.3674 10.1739C22.3674 12.3308 20.6113 14.087 18.4544 14.087Z" />
</g>
<defs>
<clipPath id="clip0">
<rect width="36" height="36" fill="white" transform="translate(0.454468)"/>
</clipPath>
</defs>
</svg>
