<svg width="42" height="36" viewBox="0 0 42 36"  xmlns="http://www.w3.org/2000/svg">
<g clip-path="url(#clip0)">
<path d="M40.3636 33.5269H35.2727V17.0422H36.4848C36.8862 17.0422 37.212 16.7169 37.212 16.3149C37.212 15.9129 36.8862 15.5875 36.4848 15.5875H28.7272C28.3258 15.5875 27.9999 15.9129 27.9999 16.3149C27.9999 16.7168 28.3257 17.0422 28.7272 17.0422H29.9393V33.527H23.6363V17.0422H24.8484C25.2498 17.0422 25.5757 16.7169 25.5757 16.3149C25.5757 15.9129 25.2499 15.5875 24.8484 15.5875H17.0908C16.6894 15.5875 16.3636 15.9129 16.3636 16.3149C16.3636 16.7168 16.6894 17.0422 17.0908 17.0422H18.3029V33.527H12V17.0422H13.2121C13.6135 17.0422 13.9394 16.7169 13.9394 16.3149C13.9394 15.9129 13.6135 15.5875 13.2121 15.5875H5.45447C5.05305 15.5875 4.72714 15.9129 4.72714 16.3149C4.72714 16.7168 5.05297 17.0422 5.45447 17.0422H6.66658V33.527H1.57578C1.17436 33.527 0.84845 33.8523 0.84845 34.2543C0.84845 34.6557 1.17427 34.9816 1.57578 34.9816H40.3636C40.765 34.9816 41.0909 34.6558 41.0909 34.2543C41.0909 33.8522 40.7651 33.5269 40.3636 33.5269ZM10.5454 33.5269H8.12123V17.0422H10.5454V33.5269ZM22.1818 33.5269H19.7576V17.0422H22.1818V33.5269ZM33.8182 33.5269H31.394V17.0422H33.8182V33.5269Z" />
<path d="M40.7603 12.7958L21.3663 0.189759C21.1253 0.0331113 20.8145 0.0331113 20.5736 0.189759L1.17961 12.7958C0.908591 12.9718 0.786887 13.3029 0.878506 13.6123C0.970125 13.9221 1.25274 14.133 1.57575 14.133H40.3635C40.6864 14.133 40.9691 13.9221 41.0608 13.6123C41.1525 13.3025 41.0308 12.9717 40.7603 12.7958ZM4.0291 12.6785L20.9696 1.66709L37.9098 12.6785H4.0291Z" />
</g>
<defs>
<clipPath id="clip0">
<rect width="41.4545" height="36" fill="white"/>
</clipPath>
</defs>
</svg>
