<svg width="29" height="111" viewBox="0 0 29 111" fill="none" xmlns="http://www.w3.org/2000/svg">
<g clip-path="url(#clip0)">
<path d="M19.4736 103.174H17.4736V105.174H19.4736V103.174Z" fill="#B9C4D0"/>
<path d="M19.4736 95.174H17.4736V101.174H19.4736V95.174Z" fill="#B9C4D0"/>
<path d="M18.4736 90.174C12.9436 90.174 8.47363 94.674 8.47363 100.174C8.47363 102.826 9.5272 105.37 11.4026 107.245C12.3312 108.174 13.4335 108.91 14.6468 109.413C15.8601 109.915 17.1604 110.174 18.4736 110.174C21.1258 110.174 23.6693 109.12 25.5447 107.245C27.4201 105.37 28.4736 102.826 28.4736 100.174C28.4736 98.8608 28.215 97.5604 27.7124 96.3472C27.2099 95.1339 26.4733 94.0315 25.5447 93.1029C24.6161 92.1743 23.5137 91.4377 22.3005 90.9352C21.0872 90.4327 19.7869 90.174 18.4736 90.174ZM18.4736 108.174C16.3519 108.174 14.3171 107.331 12.8168 105.831C11.3165 104.331 10.4736 102.296 10.4736 100.174C10.4736 98.0523 11.3165 96.0174 12.8168 94.5171C14.3171 93.0169 16.3519 92.174 18.4736 92.174C20.5954 92.174 22.6302 93.0169 24.1305 94.5171C25.6308 96.0174 26.4736 98.0523 26.4736 100.174C26.4736 102.296 25.6308 104.331 24.1305 105.831C22.6302 107.331 20.5954 108.174 18.4736 108.174Z" fill="#B9C4D0"/>
</g>
<g clip-path="url(#clip1)">
<path d="M18.6211 18.174C16.4994 18.174 14.4645 17.3311 12.9642 15.8309C11.4639 14.3306 10.6211 12.2957 10.6211 10.174C10.6211 8.05226 11.4639 6.01743 12.9642 4.51714C14.4645 3.01685 16.4994 2.174 18.6211 2.174C20.7428 2.174 22.7777 3.01685 24.2779 4.51714C25.7782 6.01743 26.6211 8.05226 26.6211 10.174C26.6211 12.2957 25.7782 14.3306 24.2779 15.8309C22.7777 17.3311 20.7428 18.174 18.6211 18.174ZM18.6211 0.173996C17.3079 0.173996 16.0075 0.432654 14.7943 0.935201C13.581 1.43775 12.4786 2.17434 11.55 3.10293C9.67466 4.97829 8.62109 7.52183 8.62109 10.174C8.62109 12.8262 9.67466 15.3697 11.55 17.2451C12.4786 18.1736 13.581 18.9102 14.7943 19.4128C16.0075 19.9153 17.3079 20.174 18.6211 20.174C21.2733 20.174 23.8168 19.1204 25.6922 17.2451C27.5675 15.3697 28.6211 12.8262 28.6211 10.174C28.6211 8.86078 28.3624 7.56042 27.8599 6.34716C27.3573 5.13391 26.6207 4.03151 25.6922 3.10293C24.7636 2.17434 23.6612 1.43775 22.4479 0.935201C21.2347 0.432654 19.9343 0.173996 18.6211 0.173996ZM18.6211 10.674C18.2233 10.674 17.8417 10.516 17.5604 10.2347C17.2791 9.95335 17.1211 9.57182 17.1211 9.174C17.1211 8.77617 17.2791 8.39464 17.5604 8.11334C17.8417 7.83203 18.2233 7.674 18.6211 7.674C19.0189 7.674 19.4004 7.83203 19.6818 8.11334C19.9631 8.39464 20.1211 8.77617 20.1211 9.174C20.1211 9.57182 19.9631 9.95335 19.6818 10.2347C19.4004 10.516 19.0189 10.674 18.6211 10.674ZM18.6211 5.374C16.5211 5.374 14.8211 7.074 14.8211 9.174C14.8211 12.174 18.6211 15.674 18.6211 15.674C18.6211 15.674 22.4211 12.174 22.4211 9.174C22.4211 7.074 20.7211 5.374 18.6211 5.374Z" fill="#B9C4D0"/>
</g>
<g clip-path="url(#clip2)">
<path d="M18.6211 48.174C16.4994 48.174 14.4645 47.3311 12.9642 45.8309C11.4639 44.3306 10.6211 42.2957 10.6211 40.174C10.6211 38.0523 11.4639 36.0174 12.9642 34.5171C14.4645 33.0169 16.4994 32.174 18.6211 32.174C20.7428 32.174 22.7777 33.0169 24.2779 34.5171C25.7782 36.0174 26.6211 38.0523 26.6211 40.174C26.6211 42.2957 25.7782 44.3306 24.2779 45.8309C22.7777 47.3311 20.7428 48.174 18.6211 48.174ZM18.6211 30.174C17.3079 30.174 16.0075 30.4327 14.7943 30.9352C13.581 31.4377 12.4786 32.1743 11.55 33.1029C9.67466 34.9783 8.62109 37.5218 8.62109 40.174C8.62109 42.8262 9.67466 45.3697 11.55 47.2451C12.4786 48.1736 13.581 48.9102 14.7943 49.4128C16.0075 49.9153 17.3079 50.174 18.6211 50.174C21.2733 50.174 23.8168 49.1204 25.6922 47.2451C27.5675 45.3697 28.6211 42.8262 28.6211 40.174C28.6211 38.8608 28.3624 37.5604 27.8599 36.3472C27.3573 35.1339 26.6207 34.0315 25.6922 33.1029C24.7636 32.1743 23.6612 31.4377 22.4479 30.9352C21.2347 30.4327 19.9343 30.174 18.6211 30.174ZM18.6211 40.674C18.2233 40.674 17.8417 40.516 17.5604 40.2347C17.2791 39.9534 17.1211 39.5718 17.1211 39.174C17.1211 38.7762 17.2791 38.3946 17.5604 38.1133C17.8417 37.832 18.2233 37.674 18.6211 37.674C19.0189 37.674 19.4004 37.832 19.6818 38.1133C19.9631 38.3946 20.1211 38.7762 20.1211 39.174C20.1211 39.5718 19.9631 39.9534 19.6818 40.2347C19.4004 40.516 19.0189 40.674 18.6211 40.674ZM18.6211 35.374C16.5211 35.374 14.8211 37.074 14.8211 39.174C14.8211 42.174 18.6211 45.674 18.6211 45.674C18.6211 45.674 22.4211 42.174 22.4211 39.174C22.4211 37.074 20.7211 35.374 18.6211 35.374Z" fill="#B9C4D0"/>
</g>
<g clip-path="url(#clip3)">
<path d="M18.6211 78.174C16.4994 78.174 14.4645 77.3311 12.9642 75.8309C11.4639 74.3306 10.6211 72.2957 10.6211 70.174C10.6211 68.0523 11.4639 66.0174 12.9642 64.5171C14.4645 63.0169 16.4994 62.174 18.6211 62.174C20.7428 62.174 22.7777 63.0169 24.2779 64.5171C25.7782 66.0174 26.6211 68.0523 26.6211 70.174C26.6211 72.2957 25.7782 74.3306 24.2779 75.8309C22.7777 77.3311 20.7428 78.174 18.6211 78.174ZM18.6211 60.174C17.3079 60.174 16.0075 60.4327 14.7943 60.9352C13.581 61.4377 12.4786 62.1743 11.55 63.1029C9.67466 64.9783 8.62109 67.5218 8.62109 70.174C8.62109 72.8262 9.67466 75.3697 11.55 77.2451C12.4786 78.1736 13.581 78.9102 14.7943 79.4128C16.0075 79.9153 17.3079 80.174 18.6211 80.174C21.2733 80.174 23.8168 79.1204 25.6922 77.2451C27.5675 75.3697 28.6211 72.8262 28.6211 70.174C28.6211 68.8608 28.3624 67.5604 27.8599 66.3472C27.3573 65.1339 26.6207 64.0315 25.6922 63.1029C24.7636 62.1743 23.6612 61.4377 22.4479 60.9352C21.2347 60.4327 19.9343 60.174 18.6211 60.174ZM18.6211 70.674C18.2233 70.674 17.8417 70.516 17.5604 70.2347C17.2791 69.9534 17.1211 69.5718 17.1211 69.174C17.1211 68.7762 17.2791 68.3946 17.5604 68.1133C17.8417 67.832 18.2233 67.674 18.6211 67.674C19.0189 67.674 19.4004 67.832 19.6818 68.1133C19.9631 68.3946 20.1211 68.7762 20.1211 69.174C20.1211 69.5718 19.9631 69.9534 19.6818 70.2347C19.4004 70.516 19.0189 70.674 18.6211 70.674ZM18.6211 65.374C16.5211 65.374 14.8211 67.074 14.8211 69.174C14.8211 72.174 18.6211 75.674 18.6211 75.674C18.6211 75.674 22.4211 72.174 22.4211 69.174C22.4211 67.074 20.7211 65.374 18.6211 65.374Z" fill="#B9C4D0"/>
</g>
<line x1="8.70996" y1="9.924" x2="1.95996" y2="9.924" stroke="#B9C4D0" stroke-width="2"/>
<line x1="8.70996" y1="39.924" x2="1.95996" y2="39.924" stroke="#B9C4D0" stroke-width="2"/>
<line x1="9.12109" y1="70.0177" x2="2.37109" y2="70.0177" stroke="#B9C4D0" stroke-width="2"/>
<line x1="8.70996" y1="99.174" x2="1.95996" y2="99.174" stroke="#B9C4D0" stroke-width="2"/>
<line x1="1.58496" y1="8.924" x2="1.58496" y2="100.174" stroke="#B9C4D0" stroke-width="2"/>
<defs>
<clipPath id="clip0">
<rect width="20" height="20" fill="white" transform="translate(8.47363 90.174)"/>
</clipPath>
<clipPath id="clip1">
<rect width="20" height="20" fill="white" transform="translate(8.62109 0.173996)"/>
</clipPath>
<clipPath id="clip2">
<rect width="20" height="20" fill="white" transform="translate(8.62109 30.174)"/>
</clipPath>
<clipPath id="clip3">
<rect width="20" height="20" fill="white" transform="translate(8.62109 60.174)"/>
</clipPath>
</defs>
</svg>
