<svg width="29" height="51" viewBox="0 0 29 51" fill="none" xmlns="http://www.w3.org/2000/svg">
<g clip-path="url(#clip0)">
<path d="M18.9775 43.174H16.9775V45.174H18.9775V43.174Z" fill="#B9C4D0"/>
<path d="M18.9775 35.174H16.9775V41.174H18.9775V35.174Z" fill="#B9C4D0"/>
<path d="M17.9775 30.174C12.4475 30.174 7.97754 34.674 7.97754 40.174C7.97754 42.8262 9.03111 45.3697 10.9065 47.2451C11.8351 48.1736 12.9374 48.9102 14.1507 49.4128C15.364 49.9153 16.6643 50.174 17.9775 50.174C20.6297 50.174 23.1732 49.1204 25.0486 47.2451C26.924 45.3697 27.9775 42.8262 27.9775 40.174C27.9775 38.8608 27.7189 37.5604 27.2163 36.3472C26.7138 35.1339 25.9772 34.0315 25.0486 33.1029C24.12 32.1743 23.0176 31.4377 21.8044 30.9352C20.5911 30.4327 19.2908 30.174 17.9775 30.174ZM17.9775 48.174C15.8558 48.174 13.821 47.3311 12.3207 45.8309C10.8204 44.3306 9.97754 42.2957 9.97754 40.174C9.97754 38.0523 10.8204 36.0174 12.3207 34.5171C13.821 33.0169 15.8558 32.174 17.9775 32.174C20.0993 32.174 22.1341 33.0169 23.6344 34.5171C25.1347 36.0174 25.9775 38.0523 25.9775 40.174C25.9775 42.2957 25.1347 44.3306 23.6344 45.8309C22.1341 47.3311 20.0993 48.174 17.9775 48.174Z" fill="#B9C4D0"/>
</g>
<g clip-path="url(#clip1)">
<path d="M18.125 18.174C16.0033 18.174 13.9684 17.3311 12.4681 15.8309C10.9679 14.3306 10.125 12.2957 10.125 10.174C10.125 8.05226 10.9679 6.01743 12.4681 4.51714C13.9684 3.01685 16.0033 2.174 18.125 2.174C20.2467 2.174 22.2816 3.01685 23.7819 4.51714C25.2821 6.01743 26.125 8.05226 26.125 10.174C26.125 12.2957 25.2821 14.3306 23.7819 15.8309C22.2816 17.3311 20.2467 18.174 18.125 18.174ZM18.125 0.173996C16.8118 0.173996 15.5114 0.432654 14.2982 0.935201C13.0849 1.43775 11.9825 2.17434 11.0539 3.10293C9.17857 4.97829 8.125 7.52183 8.125 10.174C8.125 12.8262 9.17857 15.3697 11.0539 17.2451C11.9825 18.1736 13.0849 18.9102 14.2982 19.4128C15.5114 19.9153 16.8118 20.174 18.125 20.174C20.7772 20.174 23.3207 19.1204 25.1961 17.2451C27.0714 15.3697 28.125 12.8262 28.125 10.174C28.125 8.86078 27.8663 7.56042 27.3638 6.34716C26.8612 5.13391 26.1247 4.03151 25.1961 3.10293C24.2675 2.17434 23.1651 1.43775 21.9518 0.935201C20.7386 0.432654 19.4382 0.173996 18.125 0.173996ZM18.125 10.674C17.7272 10.674 17.3456 10.516 17.0643 10.2347C16.783 9.95335 16.625 9.57182 16.625 9.174C16.625 8.77617 16.783 8.39464 17.0643 8.11334C17.3456 7.83203 17.7272 7.674 18.125 7.674C18.5228 7.674 18.9044 7.83203 19.1857 8.11334C19.467 8.39464 19.625 8.77617 19.625 9.174C19.625 9.57182 19.467 9.95335 19.1857 10.2347C18.9044 10.516 18.5228 10.674 18.125 10.674ZM18.125 5.374C16.025 5.374 14.325 7.074 14.325 9.174C14.325 12.174 18.125 15.674 18.125 15.674C18.125 15.674 21.925 12.174 21.925 9.174C21.925 7.074 20.225 5.374 18.125 5.374Z" fill="#B9C4D0"/>
</g>
<line x1="8.21387" y1="9.924" x2="1.46387" y2="9.924" stroke="#B9C4D0" stroke-width="2"/>
<line x1="8.22168" y1="39.8771" x2="1.47168" y2="39.8771" stroke="#B9C4D0" stroke-width="2"/>
<line x1="1.08887" y1="8.924" x2="1.08887" y2="40.875" stroke="#B9C4D0" stroke-width="2"/>
<defs>
<clipPath id="clip0">
<rect width="20" height="20" fill="white" transform="translate(7.97754 30.174)"/>
</clipPath>
<clipPath id="clip1">
<rect width="20" height="20" fill="white" transform="translate(8.125 0.173996)"/>
</clipPath>
</defs>
</svg>
