<svg width="21" height="20" viewBox="0 0 21 20" fill="none" xmlns="http://www.w3.org/2000/svg">
<path d="M15.603 11H11.603V15H9.60303V11H5.60303V9H9.60303V5H11.603V9H15.603V11ZM10.603 0C9.28981 0 7.98945 0.258658 6.77619 0.761205C5.56294 1.26375 4.46055 2.00035 3.53196 2.92893C1.6566 4.8043 0.603027 7.34784 0.603027 10C0.603027 12.6522 1.6566 15.1957 3.53196 17.0711C4.46055 17.9997 5.56294 18.7362 6.77619 19.2388C7.98945 19.7413 9.28981 20 10.603 20C13.2552 20 15.7987 18.9464 17.6741 17.0711C19.5495 15.1957 20.603 12.6522 20.603 10C20.603 8.68678 20.3444 7.38642 19.8418 6.17317C19.3393 4.95991 18.6027 3.85752 17.6741 2.92893C16.7455 2.00035 15.6431 1.26375 14.4299 0.761205C13.2166 0.258658 11.9162 0 10.603 0Z" fill="#58AA43"/>
</svg>
