<svg width="21" height="20" viewBox="0 0 21 20"  xmlns="http://www.w3.org/2000/svg">
<path d="M7.96048 9H5.99328V11H7.96048V9ZM11.8949 9H9.92767V11H11.8949V9ZM15.8292 9H13.8621V11H15.8292V9ZM17.7964 2H16.8128V0H14.8457V2H6.97688V0H5.00969V2H4.02609C2.9343 2 2.0589 2.9 2.0589 4V18C2.0589 18.5304 2.26616 19.0391 2.63508 19.4142C3.004 19.7893 3.50436 20 4.02609 20H17.7964C18.3182 20 18.8185 19.7893 19.1875 19.4142C19.5564 19.0391 19.7636 18.5304 19.7636 18V4C19.7636 3.46957 19.5564 2.96086 19.1875 2.58579C18.8185 2.21071 18.3182 2 17.7964 2ZM17.7964 18H4.02609V7H17.7964V18Z" />
</svg>
