<svg width="19" height="13" viewBox="0 0 19 13" fill="none" xmlns="http://www.w3.org/2000/svg">
<path d="M12.9 2.174V10.174H2.90002V2.174H12.9ZM13.9 0.173996H1.90002C1.63481 0.173996 1.38045 0.279353 1.19292 0.466889C1.00538 0.654426 0.900024 0.90878 0.900024 1.174V11.174C0.900024 11.4392 1.00538 11.6936 1.19292 11.8811C1.38045 12.0686 1.63481 12.174 1.90002 12.174H13.9C14.1652 12.174 14.4196 12.0686 14.6071 11.8811C14.7947 11.6936 14.9 11.4392 14.9 11.174V7.674L18.9 11.674V0.673996L14.9 4.674V1.174C14.9 0.90878 14.7947 0.654426 14.6071 0.466889C14.4196 0.279353 14.1652 0.173996 13.9 0.173996Z" fill="#7391AB"/>
</svg>
