<svg width="37" height="33" viewBox="0 0 37 33" fill="none" xmlns="http://www.w3.org/2000/svg">
<path d="M33.3988 3.6H27.6928L24.3988 0H13.5988L10.3048 3.6H4.59878C3.644 3.6 2.72833 3.97928 2.05319 4.65442C1.37806 5.32955 0.998779 6.24522 0.998779 7.2V28.8C0.998779 29.7548 1.37806 30.6705 2.05319 31.3456C2.72833 32.0207 3.644 32.4 4.59878 32.4H33.3988C34.3536 32.4 35.2692 32.0207 35.9444 31.3456C36.6195 30.6705 36.9988 29.7548 36.9988 28.8V7.2C36.9988 6.24522 36.6195 5.32955 35.9444 4.65442C35.2692 3.97928 34.3536 3.6 33.3988 3.6ZM33.3988 28.8H4.59878V7.2H11.8888L15.1828 3.6H22.8148L26.1088 7.2H33.3988V28.8ZM18.9988 9C16.6118 9 14.3226 9.94821 12.6348 11.636C10.947 13.3239 9.99878 15.6131 9.99878 18C9.99878 20.3869 10.947 22.6761 12.6348 24.364C14.3226 26.0518 16.6118 27 18.9988 27C21.3857 27 23.6749 26.0518 25.3627 24.364C27.0506 22.6761 27.9988 20.3869 27.9988 18C27.9988 15.6131 27.0506 13.3239 25.3627 11.636C23.6749 9.94821 21.3857 9 18.9988 9ZM18.9988 23.4C17.5666 23.4 16.1931 22.8311 15.1804 21.8184C14.1677 20.8057 13.5988 19.4322 13.5988 18C13.5988 16.5678 14.1677 15.1943 15.1804 14.1816C16.1931 13.1689 17.5666 12.6 18.9988 12.6C20.4309 12.6 21.8045 13.1689 22.8172 14.1816C23.8299 15.1943 24.3988 16.5678 24.3988 18C24.3988 19.4322 23.8299 20.8057 22.8172 21.8184C21.8045 22.8311 20.4309 23.4 18.9988 23.4Z" fill="#7391AB"/>
</svg>
