<svg width="19" height="22" viewBox="0 0 19 22"  xmlns="http://www.w3.org/2000/svg">
<path d="M16.7523 19.4689H6.33124V6.20574H16.7523V19.4689ZM16.7523 4.311H6.33124C5.82873 4.311 5.3468 4.51063 4.99146 4.86596C4.63613 5.22129 4.43651 5.70323 4.43651 6.20574V19.4689C4.43651 19.9714 4.63613 20.4533 4.99146 20.8087C5.3468 21.164 5.82873 21.3636 6.33124 21.3636H16.7523C17.2548 21.3636 17.7367 21.164 18.0921 20.8087C18.4474 20.4533 18.647 19.9714 18.647 19.4689V6.20574C18.647 5.70323 18.4474 5.22129 18.0921 4.86596C17.7367 4.51063 17.2548 4.311 16.7523 4.311ZM13.9102 0.52153H2.54177C2.03926 0.52153 1.55732 0.721154 1.20199 1.07649C0.846657 1.43182 0.647034 1.91375 0.647034 2.41627V15.6794H2.54177V2.41627H13.9102V0.52153Z" />
</svg>
