<svg width="21" height="16" viewBox="0 0 21 16" fill="none" xmlns="http://www.w3.org/2000/svg">
<path d="M18.7881 0.681816H6.28811C5.71311 0.681816 5.26311 0.973483 4.96311 1.41515L0.454773 8.18182L4.96311 14.9401C5.26311 15.3818 5.71311 15.6818 6.28811 15.6818H18.7881C19.2301 15.6818 19.6541 15.5062 19.9666 15.1937C20.2792 14.8811 20.4548 14.4572 20.4548 14.0151V2.34848C20.4548 1.90646 20.2792 1.48253 19.9666 1.16997C19.6541 0.857411 19.2301 0.681816 18.7881 0.681816ZM16.2881 11.1735L15.1131 12.3485L12.1214 9.35682L9.12977 12.3485L7.95477 11.1735L10.9464 8.18182L7.95477 5.19015L9.12977 4.01515L12.1214 7.00682L15.1131 4.01515L16.2881 5.19015L13.2964 8.18182" fill="#7391AB"/>
</svg>
