<svg width="19" height="19" viewBox="0 0 19 19"  xmlns="http://www.w3.org/2000/svg">
<path d="M2.64703 0.0722733C1.53703 0.0722733 0.647034 0.962273 0.647034 2.07227V16.0723C0.647034 16.6027 0.857747 17.1114 1.23282 17.4865C1.60789 17.8616 2.1166 18.0723 2.64703 18.0723H16.647C17.1775 18.0723 17.6862 17.8616 18.0612 17.4865C18.4363 17.1114 18.647 16.6027 18.647 16.0723V9.07227H16.647V16.0723H2.64703V2.07227H9.64703V0.0722733H2.64703ZM15.427 1.07227C15.257 1.07227 15.077 1.14227 14.947 1.27227L13.727 2.48227L16.227 4.98227L17.447 3.77227C17.707 3.51227 17.707 3.07227 17.447 2.82227L15.897 1.27227C15.767 1.14227 15.597 1.07227 15.427 1.07227ZM13.017 3.19227L5.64703 10.5723V13.0723H8.14703L15.517 5.69227L13.017 3.19227Z" />
</svg>
