<svg width="19" height="19" viewBox="0 0 19 19"  xmlns="http://www.w3.org/2000/svg">
<path d="M16.5428 0.36364H2.54279C1.43279 0.36364 0.542786 1.25364 0.542786 2.36364V6.36364H2.54279V2.36364H16.5428V16.3636H2.54279V12.3636H0.542786V16.3636C0.542786 16.8941 0.753499 17.4028 1.12857 17.7779C1.50364 18.1529 2.01235 18.3636 2.54279 18.3636H16.5428C17.0732 18.3636 17.5819 18.1529 17.957 17.7779C18.3321 17.4028 18.5428 16.8941 18.5428 16.3636V2.36364C18.5428 1.25364 17.6428 0.36364 16.5428 0.36364ZM7.62279 12.9436L9.04279 14.3636L14.0428 9.36364L9.04279 4.36364L7.62279 5.77364L10.2128 8.36364H0.542786V10.3636H10.2128L7.62279 12.9436Z" />
</svg>
