<svg width="21" height="16" viewBox="0 0 21 16"  xmlns="http://www.w3.org/2000/svg">
<path d="M12.0688 6.77364C12.6762 5.9249 13.0028 4.90735 13.0028 3.86364C13.0028 2.81993 12.6762 1.80238 12.0688 0.953639C12.6373 0.565595 13.3105 0.359806 13.9988 0.363639C14.927 0.363639 15.8173 0.732388 16.4737 1.38877C17.13 2.04514 17.4988 2.93538 17.4988 3.86364C17.4988 4.7919 17.13 5.68214 16.4737 6.33851C15.8173 6.99489 14.927 7.36364 13.9988 7.36364C13.3105 7.36747 12.6373 7.16168 12.0688 6.77364ZM4.49878 3.86364C4.49878 3.1714 4.70405 2.49472 5.08864 1.91914C5.47322 1.34357 6.01985 0.894967 6.65939 0.630061C7.29893 0.365154 8.00266 0.295842 8.6816 0.430891C9.36053 0.565939 9.98417 0.899282 10.4737 1.38877C10.9631 1.87825 11.2965 2.50189 11.4315 3.18082C11.5666 3.85976 11.4973 4.56349 11.2324 5.20303C10.9675 5.84257 10.5188 6.3892 9.94328 6.77378C9.3677 7.15837 8.69101 7.36364 7.99878 7.36364C7.07052 7.36364 6.18028 6.99489 5.52391 6.33851C4.86753 5.68214 4.49878 4.7919 4.49878 3.86364ZM6.49878 3.86364C6.49878 4.16031 6.58675 4.45032 6.75157 4.69699C6.9164 4.94367 7.15066 5.13593 7.42475 5.24946C7.69884 5.36299 8.00044 5.39269 8.29142 5.33482C8.58239 5.27694 8.84966 5.13408 9.05944 4.9243C9.26922 4.71452 9.41208 4.44725 9.46996 4.15627C9.52783 3.8653 9.49813 3.5637 9.3846 3.28961C9.27107 3.01552 9.07881 2.78126 8.83213 2.61643C8.58546 2.45161 8.29545 2.36364 7.99878 2.36364C7.60095 2.36364 7.21942 2.52167 6.93812 2.80298C6.65681 3.08428 6.49878 3.46581 6.49878 3.86364ZM14.9988 13.3636V15.3636H0.998779V13.3636C0.998779 13.3636 0.998779 9.36364 7.99878 9.36364C14.9988 9.36364 14.9988 13.3636 14.9988 13.3636ZM12.9988 13.3636C12.8588 12.5836 11.6688 11.3636 7.99878 11.3636C4.32878 11.3636 3.06878 12.6736 2.99878 13.3636H12.9988ZM14.9488 9.36364C15.5617 9.84037 16.0628 10.4455 16.417 11.1365C16.7711 11.8275 16.9697 12.5877 16.9988 13.3636V15.3636H20.9988V13.3636C20.9988 13.3636 20.9988 9.73364 14.9388 9.36364H14.9488Z" />
</svg>
