<svg width="17" height="16" viewBox="0 0 17 16"  xmlns="http://www.w3.org/2000/svg">
<path d="M8.93268 0C9.99354 0 11.011 0.421427 11.7611 1.17157C12.5113 1.92172 12.9327 2.93913 12.9327 4C12.9327 5.06087 12.5113 6.07828 11.7611 6.82843C11.011 7.57857 9.99354 8 8.93268 8C7.87181 8 6.8544 7.57857 6.10425 6.82843C5.35411 6.07828 4.93268 5.06087 4.93268 4C4.93268 2.93913 5.35411 1.92172 6.10425 1.17157C6.8544 0.421427 7.87181 0 8.93268 0ZM8.93268 2C8.40225 2 7.89354 2.21071 7.51847 2.58579C7.14339 2.96086 6.93268 3.46957 6.93268 4C6.93268 4.53043 7.14339 5.03914 7.51847 5.41421C7.89354 5.78929 8.40225 6 8.93268 6C9.46311 6 9.97182 5.78929 10.3469 5.41421C10.722 5.03914 10.9327 4.53043 10.9327 4C10.9327 3.46957 10.722 2.96086 10.3469 2.58579C9.97182 2.21071 9.46311 2 8.93268 2ZM8.93268 9C11.6027 9 16.9327 10.33 16.9327 13V16H0.932678V13C0.932678 10.33 6.26268 9 8.93268 9ZM8.93268 10.9C5.96268 10.9 2.83268 12.36 2.83268 13V14.1H15.0327V13C15.0327 12.36 11.9027 10.9 8.93268 10.9Z" />
</svg>
