<svg width="19" height="21" viewBox="0 0 19 21" fill="none" xmlns="http://www.w3.org/2000/svg">
<path d="M15.2813 14.274L10.6613 9.644L10.5513 9.534L2.18125 1.174L0.911255 2.444L4.09125 5.624C3.97125 6.124 3.91125 6.634 3.91125 7.174C3.91125 12.424 10.9113 20.174 10.9113 20.174C10.9113 20.174 12.5813 18.324 14.2813 15.824L17.6413 19.174L18.9113 17.894L15.2813 14.274ZM10.9113 4.674C11.5743 4.674 12.2102 4.93739 12.679 5.40623C13.1479 5.87507 13.4113 6.51095 13.4113 7.174C13.4113 7.904 13.0813 8.564 12.5813 9.024L16.2113 12.674C17.1913 10.794 17.9113 8.854 17.9113 7.174C17.9113 5.31748 17.1738 3.537 15.861 2.22425C14.5482 0.911494 12.7678 0.173996 10.9113 0.173996C8.91125 0.173996 7.15125 0.993996 5.87125 2.314L9.06125 5.504C9.52125 4.994 10.1713 4.674 10.9113 4.674Z" fill="#E60909"/>
</svg>
