<svg width="16" height="20" viewBox="0 0 16 20"  xmlns="http://www.w3.org/2000/svg">
<path d="M7.91121 0C8.74873 0 9.55196 0.332706 10.1442 0.924926C10.7364 1.51715 11.0691 2.32037 11.0691 3.15789V9.47368C11.0691 10.3112 10.7364 11.1144 10.1442 11.7067C9.55196 12.2989 8.74873 12.6316 7.91121 12.6316C7.07368 12.6316 6.27046 12.2989 5.67824 11.7067C5.08602 11.1144 4.75331 10.3112 4.75331 9.47368V3.15789C4.75331 2.32037 5.08602 1.51715 5.67824 0.924926C6.27046 0.332706 7.07368 0 7.91121 0ZM15.2796 9.47368C15.2796 13.1895 12.5323 16.2526 8.96384 16.7684V20H6.85858V16.7684C3.29015 16.2526 0.542786 13.1895 0.542786 9.47368H2.64805C2.64805 10.8696 3.20256 12.2083 4.18959 13.1953C5.17663 14.1823 6.51533 14.7368 7.91121 14.7368C9.30708 14.7368 10.6458 14.1823 11.6328 13.1953C12.6199 12.2083 13.1744 10.8696 13.1744 9.47368H15.2796Z" />
</svg>
