<svg width="15" height="20" viewBox="0 0 15 20" fill="none" xmlns="http://www.w3.org/2000/svg">
<path d="M7.3584 4.5C8.02144 4.5 8.65732 4.76339 9.12617 5.23223C9.59501 5.70107 9.8584 6.33696 9.8584 7C9.8584 7.3283 9.79373 7.65339 9.6681 7.95671C9.54246 8.26002 9.35831 8.53562 9.12617 8.76777C8.89402 8.99991 8.61842 9.18406 8.31511 9.3097C8.01179 9.43534 7.6867 9.5 7.3584 9.5C6.69536 9.5 6.05947 9.23661 5.59063 8.76777C5.12179 8.29893 4.8584 7.66304 4.8584 7C4.8584 6.33696 5.12179 5.70107 5.59063 5.23223C6.05947 4.76339 6.69536 4.5 7.3584 4.5ZM7.3584 0C9.21491 0 10.9954 0.737498 12.3081 2.05025C13.6209 3.36301 14.3584 5.14348 14.3584 7C14.3584 12.25 7.3584 20 7.3584 20C7.3584 20 0.358398 12.25 0.358398 7C0.358398 5.14348 1.0959 3.36301 2.40865 2.05025C3.72141 0.737498 5.50188 0 7.3584 0ZM7.3584 2C6.03232 2 4.76055 2.52678 3.82286 3.46447C2.88518 4.40215 2.3584 5.67392 2.3584 7C2.3584 8 2.3584 10 7.3584 16.71C12.3584 10 12.3584 8 12.3584 7C12.3584 5.67392 11.8316 4.40215 10.8939 3.46447C9.95625 2.52678 8.68448 2 7.3584 2Z" fill="#7391AB"/>
</svg>
