<svg width="20" height="19" viewBox="0 0 20 19" fill="none" xmlns="http://www.w3.org/2000/svg">
<path d="M14.375 18.3636L11.625 15.3636L12.785 14.2036L14.375 15.7936L17.965 12.2036L19.125 13.6136L14.375 18.3636ZM10.175 18.3636H2.375C1.265 18.3636 0.375 17.4736 0.375 16.3636V2.36364C0.375 1.25364 1.265 0.36364 2.375 0.36364H16.375C17.485 0.36364 18.375 1.25364 18.375 2.36364V10.1636C17.765 9.81364 17.095 9.56364 16.375 9.44364V2.36364H2.375V16.3636H9.455C9.575 17.0836 9.825 17.7536 10.175 18.3636ZM9.375 14.3636H4.375V12.3636H9.375V14.3636ZM12.055 10.3636H4.375V8.36364H14.375V9.44364C13.525 9.58364 12.745 9.90364 12.055 10.3636ZM14.375 6.36364H4.375V4.36364H14.375" fill="#7391AB"/>
</svg>
