<svg width="19" height="19" viewBox="0 0 19 19" fill="none" xmlns="http://www.w3.org/2000/svg">
<path d="M15.5033 3.00739C13.872 1.37614 11.6333 0.36364 9.14703 0.36364C6.76009 0.36364 4.4709 1.31185 2.78307 2.99968C1.09525 4.68751 0.147034 6.97669 0.147034 9.36364C0.147034 11.7506 1.09525 14.0398 2.78307 15.7276C4.4709 17.4154 6.76009 18.3636 9.14703 18.3636C13.3433 18.3636 16.842 15.4949 17.8433 11.6136H15.5033C14.5808 14.2349 12.0833 16.1136 9.14703 16.1136C7.35682 16.1136 5.63993 15.4025 4.37406 14.1366C3.10819 12.8707 2.39703 11.1539 2.39703 9.36364C2.39703 7.57343 3.10819 5.85654 4.37406 4.59067C5.63993 3.3248 7.35682 2.61364 9.14703 2.61364C11.0145 2.61364 12.6795 3.38989 13.8945 4.61614L10.272 8.23864H18.147V0.36364L15.5033 3.00739Z" fill="#7391AB"/>
</svg>
