<svg width="21" height="20" viewBox="0 0 21 20" fill="none" xmlns="http://www.w3.org/2000/svg">
<g clip-path="url(#clip0)">
<path d="M11.9113 13H9.91125V15H11.9113V13Z" fill="#B9C4D0"/>
<path d="M11.9113 5H9.91125V11H11.9113V5Z" fill="#B9C4D0"/>
<path d="M10.9113 0C5.38125 0 0.911255 4.5 0.911255 10C0.911255 12.6522 1.96482 15.1957 3.84019 17.0711C4.76877 17.9997 5.87116 18.7362 7.08442 19.2388C8.29768 19.7413 9.59804 20 10.9113 20C13.5634 20 16.107 18.9464 17.9823 17.0711C19.8577 15.1957 20.9113 12.6522 20.9113 10C20.9113 8.68678 20.6526 7.38642 20.1501 6.17317C19.6475 4.95991 18.9109 3.85752 17.9823 2.92893C17.0537 2.00035 15.9513 1.26375 14.7381 0.761205C13.5248 0.258658 12.2245 0 10.9113 0ZM10.9113 18C8.78952 18 6.75469 17.1571 5.2544 15.6569C3.75411 14.1566 2.91125 12.1217 2.91125 10C2.91125 7.87827 3.75411 5.84344 5.2544 4.34315C6.75469 2.84285 8.78952 2 10.9113 2C13.033 2 15.0678 2.84285 16.5681 4.34315C18.0684 5.84344 18.9113 7.87827 18.9113 10C18.9113 12.1217 18.0684 14.1566 16.5681 15.6569C15.0678 17.1571 13.033 18 10.9113 18Z" fill="#B9C4D0"/>
</g>
<defs>
<clipPath id="clip0">
<rect width="20" height="20" fill="white" transform="translate(0.911255)"/>
</clipPath>
</defs>
</svg>
