<svg width="21" height="17" viewBox="0 0 21 17" fill="none" xmlns="http://www.w3.org/2000/svg">
<path d="M10.4548 5.18182C11.1781 5.18182 11.8718 5.49789 12.3832 6.0605C12.8947 6.62311 13.182 7.38617 13.182 8.18182C13.182 8.97747 12.8947 9.74053 12.3832 10.3031C11.8718 10.8657 11.1781 11.1818 10.4548 11.1818C9.73146 11.1818 9.03776 10.8657 8.5263 10.3031C8.01484 9.74053 7.7275 8.97747 7.7275 8.18182C7.7275 7.38617 8.01484 6.62311 8.5263 6.0605C9.03776 5.49789 9.73146 5.18182 10.4548 5.18182ZM10.4548 0.681818C15.0002 0.681818 18.882 3.79182 20.4548 8.18182C18.882 12.5718 15.0002 15.6818 10.4548 15.6818C5.90932 15.6818 2.0275 12.5718 0.454773 8.18182C2.0275 3.79182 5.90932 0.681818 10.4548 0.681818ZM2.43659 8.18182C3.93659 11.5418 7.03659 13.6818 10.4548 13.6818C13.873 13.6818 16.973 11.5418 18.473 8.18182C16.973 4.82182 13.873 2.68182 10.4548 2.68182C7.03659 2.68182 3.93659 4.82182 2.43659 8.18182Z" fill="#B9C4D0"/>
</svg>
